# xmcd
#
# Track frame offsets: 
#        182
#        14837
#        29235
#        42980
#        56245
#        72380
#        85242
#        95980
#        109527
#        123692
#        136942
#        150652
#        164970
#        177452
#        190872
#        204135
#        216390
#        225275
#        237850
#        248520
#
# Disc length: 3487 seconds
#
# Revision: 4
# Processed by: cddbd v1.5.2PL0 Copyright (c) Steve Scherf et al.
# Submitted via: ExactAudioCopyFreeDBPlugin 1.0
#
DISCID=2a0d9d14
DTITLE=Charles Brown - Driftin' Blues:  The Best of Charles Brown
DYEAR=1992
DGENRE=Rhythm and Blues
TTITLE0=Driftin' Blues
TTITLE1=Homesick Blues
TTITLE2=Get Yourself Another Fool
TTITLE3=In the Evening When the Sun Goes Down
TTITLE4=A Long Time
TTITLE5=It's Nothing
TTITLE6=Trouble Blues
TTITLE7=My Baby's Gone
TTITLE8=Black Night
TTITLE9=I'll Always Be in Love with You
TTITLE10=Seven Long Days
TTITLE11=Hard Times
TTITLE12=Evening Shadows
TTITLE13=I Lost Everything
TTITLE14=Lonesome Feeling
TTITLE15=Cryin' Mercy
TTITLE16=I've Been Savin' My Love for You
TTITLE17=Fool's Paradise
TTITLE18=Please Don't Drive Me Away
TTITLE19=Merry Christmas, Baby
EXTD=YEAR: 1992
EXTT0=
EXTT1=
EXTT2=
EXTT3=
EXTT4=
EXTT5=
EXTT6=
EXTT7=
EXTT8=
EXTT9=
EXTT10=
EXTT11=
EXTT12=
EXTT13=
EXTT14=
EXTT15=
EXTT16=
EXTT17=
EXTT18=
EXTT19=
PLAYORDER=
